<svg width="35" height="27" viewBox="0 0 35 27" fill="none" xmlns="http://www.w3.org/2000/svg">
<path d="M34.3216 3.03395C34.3193 3.03395 34.317 3.03395 34.3148 3.03395H32.0149V2.24697C32.0273 1.93549 31.8258 1.65555 31.5265 1.56855C29.9298 1.15013 28.2856 0.940323 26.635 0.944394C23.9213 0.944394 20.2239 1.55498 17.4898 4.33652C14.7761 1.52784 11.0516 0.944394 8.34464 0.944394C6.69403 0.940323 5.04986 1.15013 3.45319 1.56855C3.15383 1.65555 2.95234 1.93549 2.96472 2.24697V3.02716H0.678426C0.303765 3.02716 0 3.33093 0 3.70559V25.3745C0 25.7492 0.303765 26.0529 0.678426 26.0529C0.794946 26.0526 0.90943 26.0222 1.01085 25.9647C1.0787 25.9308 7.86296 22.2198 17.3338 24.6079H17.4355H17.4966C17.5507 24.6144 17.6053 24.6144 17.6594 24.6079C27.1574 22.1995 33.9417 25.9037 33.9824 25.9647C34.1922 26.0859 34.4509 26.0859 34.6608 25.9647C34.8694 25.8443 34.9986 25.6222 35 25.3813V3.71237C35 3.33771 34.6963 3.03395 34.3216 3.03395ZM1.35685 24.2958V4.3908H2.97829V21.4057C2.97405 21.7804 3.27434 22.0875 3.649 22.0918C3.68563 22.0922 3.72227 22.0897 3.75848 22.0841C5.16197 21.8698 6.57895 21.7565 7.99864 21.7449C9.96523 21.7108 11.9236 22.0066 13.7924 22.6201C9.57217 22.1098 5.29147 22.6866 1.35685 24.2958ZM7.99864 20.3949C6.76467 20.3977 5.53214 20.477 4.30801 20.6323V2.78293C5.6289 2.48866 6.97778 2.33847 8.33107 2.33517C10.8684 2.33517 14.3691 2.91861 16.7978 5.65945L16.8182 22.559C15.4071 21.6364 12.6526 20.3949 7.99864 20.3949ZM18.175 5.65945C20.6038 2.94575 24.1045 2.33517 26.6418 2.33517C27.995 2.33915 29.3439 2.48925 30.6649 2.78293V20.6323C29.4476 20.4755 28.2218 20.3939 26.9946 20.3881C22.3677 20.3881 19.6065 21.6296 18.175 22.5523V5.65945ZM33.6364 24.2958C29.6934 22.6822 25.4028 22.1053 21.1737 22.6201C23.0513 22.0044 25.019 21.7086 26.9946 21.7449C28.4232 21.7529 29.8493 21.864 31.2619 22.0774C31.6323 22.1336 31.9782 21.8788 32.0344 21.5084C32.0399 21.4722 32.0425 21.4356 32.0421 21.3989V4.3908H33.6635L33.6364 24.2958Z" fill="#602515"/>
</svg>
