<svg width="29" height="29" viewBox="0 0 29 29" fill="none" xmlns="http://www.w3.org/2000/svg">
<g clip-path="url(#clip0)">
<path d="M28.6595 26.704C28.6594 26.7037 28.6594 26.7033 28.6592 26.703L21.5978 0.348401C21.5306 0.0981398 21.2735 -0.0506291 21.023 0.0158171L14.6601 1.7206C14.5729 1.74648 14.4953 1.79775 14.4372 1.86784V0.857861C14.4372 0.598074 14.2265 0.387445 13.9668 0.387445H0.795123C0.535336 0.387445 0.324707 0.598074 0.324707 0.857861V28.142C0.324707 28.4017 0.535336 28.6124 0.795123 28.6124H13.9668C14.2265 28.6124 14.4372 28.4017 14.4372 28.142V2.70565L21.389 28.6514C21.4441 28.857 21.6305 29 21.8434 29C21.884 28.9997 21.9245 28.9943 21.9638 28.984L28.3252 27.2792C28.5764 27.2127 28.726 26.9552 28.6595 26.704ZM6.91052 27.6715H1.26554V1.32828H6.91052V27.6715ZM13.4963 27.6715H7.85136V1.32828H13.4963V27.6715ZM22.176 27.9538L15.3582 2.50761L20.8108 1.04603L27.6286 26.4922L22.176 27.9538Z" fill="#602515"/>
<path d="M5.49927 3.20994H2.67678C2.41699 3.20994 2.20636 3.42057 2.20636 3.68035C2.20636 3.94014 2.41699 4.15077 2.67678 4.15077H5.49927C5.75906 4.15077 5.96968 3.94014 5.96968 3.68035C5.96968 3.42057 5.75906 3.20994 5.49927 3.20994Z" fill="#602515"/>
<path d="M5.49927 5.0916H2.67678C2.41699 5.0916 2.20636 5.30223 2.20636 5.56201C2.20636 5.8218 2.41699 6.03243 2.67678 6.03243H5.49927C5.75906 6.03243 5.96968 5.8218 5.96968 5.56201C5.96968 5.30223 5.75906 5.0916 5.49927 5.0916Z" fill="#602515"/>
<path d="M12.0851 3.20994H9.26259C9.0028 3.20994 8.79218 3.42057 8.79218 3.68035C8.79218 3.94014 9.0028 4.15077 9.26259 4.15077H12.0851C12.3449 4.15077 12.5555 3.94014 12.5555 3.68035C12.5555 3.42057 12.3449 3.20994 12.0851 3.20994Z" fill="#602515"/>
<path d="M12.0851 5.0916H9.26259C9.0028 5.0916 8.79218 5.30223 8.79218 5.56201C8.79218 5.8218 9.0028 6.03243 9.26259 6.03243H12.0851C12.3449 6.03243 12.5555 5.8218 12.5555 5.56201C12.5555 5.30223 12.3449 5.0916 12.0851 5.0916Z" fill="#602515"/>
<path d="M20.5242 3.57104C20.4637 3.31837 20.2098 3.1626 19.9572 3.22311C19.9489 3.22511 19.9407 3.22729 19.9326 3.2297L17.2042 3.95978C16.9529 4.02576 16.8027 4.28295 16.8687 4.53422C16.9347 4.78548 17.1919 4.93571 17.4431 4.86974C17.4445 4.86939 17.4459 4.86897 17.4474 4.86862L20.1763 4.13807C20.429 4.07756 20.5847 3.82371 20.5242 3.57104Z" fill="#602515"/>
<path d="M20.9994 5.3795C20.9322 5.12853 20.6742 4.97964 20.4232 5.04691H20.4213L17.6952 5.77747C17.444 5.84345 17.2937 6.10065 17.3597 6.35191C17.4257 6.60317 17.6829 6.75341 17.9342 6.68743C17.9356 6.68708 17.937 6.68667 17.9384 6.68632L20.6669 5.95576C20.9178 5.88849 21.0667 5.63047 20.9994 5.3795Z" fill="#602515"/>
<path d="M25.6215 22.6447C25.5536 22.3958 25.2979 22.248 25.0483 22.3135L22.3199 23.0441C22.0689 23.1112 21.9199 23.3691 21.9871 23.6201C22.0421 23.8259 22.2287 23.969 22.4417 23.9689H22.4436C22.4847 23.9688 22.5257 23.9635 22.5654 23.9529L25.2915 23.2224C25.5421 23.154 25.6899 22.8954 25.6215 22.6447Z" fill="#602515"/>
<path d="M26.1127 24.4624C26.0448 24.2135 25.789 24.0657 25.5394 24.1312L22.8105 24.8618C22.5596 24.9289 22.4106 25.1868 22.4777 25.4378C22.5328 25.6436 22.7193 25.7867 22.9324 25.7866C22.9735 25.7867 23.0145 25.7811 23.0542 25.7701L25.7826 25.04C26.0332 24.9717 26.181 24.7131 26.1127 24.4624Z" fill="#602515"/>
<path d="M12.0851 22.9674H9.26259C9.0028 22.9674 8.79218 23.178 8.79218 23.4378C8.79218 23.6976 9.0028 23.9082 9.26259 23.9082H12.0851C12.3449 23.9082 12.5555 23.6976 12.5555 23.4378C12.5555 23.178 12.3449 22.9674 12.0851 22.9674Z" fill="#602515"/>
<path d="M12.0851 24.8491H9.26259C9.0028 24.8491 8.79218 25.0597 8.79218 25.3195C8.79218 25.5793 9.0028 25.7899 9.26259 25.7899H12.0851C12.3449 25.7899 12.5555 25.5793 12.5555 25.3195C12.5555 25.0597 12.3449 24.8491 12.0851 24.8491Z" fill="#602515"/>
<path d="M5.49927 22.9674H2.67678C2.41699 22.9674 2.20636 23.178 2.20636 23.4378C2.20636 23.6976 2.41699 23.9082 2.67678 23.9082H5.49927C5.75906 23.9082 5.96968 23.6976 5.96968 23.4378C5.96968 23.178 5.75906 22.9674 5.49927 22.9674Z" fill="#602515"/>
<path d="M5.49927 24.8491H2.67678C2.41699 24.8491 2.20636 25.0597 2.20636 25.3195C2.20636 25.5793 2.41699 25.7899 2.67678 25.7899H5.49927C5.75906 25.7899 5.96968 25.5793 5.96968 25.3195C5.96968 25.0597 5.75906 24.8491 5.49927 24.8491Z" fill="#602515"/>
</g>
<defs>
<clipPath id="clip0">
<rect width="29" height="29" fill="white"/>
</clipPath>
</defs>
</svg>
