<svg width="29" height="29" viewBox="0 0 29 29" fill="none" xmlns="http://www.w3.org/2000/svg">
<path d="M4.43438 5.69592C3.88821 5.69592 3.88731 6.54471 4.43438 6.54471C4.98054 6.54471 4.98145 5.69592 4.43438 5.69592Z" fill="#91361E"/>
<path d="M12.2178 3.8432C11.6717 3.8432 11.6708 4.69199 12.2178 4.69199C12.764 4.69199 12.7648 3.8432 12.2178 3.8432Z" fill="#91361E"/>
<path d="M16.9393 7.66205C16.3931 7.66205 16.3922 8.51083 16.9393 8.51083C17.4854 8.51083 17.4863 7.66205 16.9393 7.66205Z" fill="#91361E"/>
<path d="M4.62529 11.4703C5.17146 11.4703 5.17236 10.6215 4.62529 10.6215C4.07913 10.6215 4.07823 11.4703 4.62529 11.4703Z" fill="#91361E"/>
<path d="M14.3438 9.47095C13.7976 9.47095 13.7967 10.3197 14.3438 10.3197C14.8899 10.3197 14.8908 9.47095 14.3438 9.47095Z" fill="#91361E"/>
<path d="M8.91729 8.27493C9.46345 8.27493 9.46436 7.42615 8.91729 7.42615C8.37112 7.42615 8.37022 8.27493 8.91729 8.27493Z" fill="#91361E"/>
<path d="M28.998 16.4268C28.9847 15.8444 28.9929 15.2612 28.9929 14.6786C28.9929 13.8146 28.5245 13.0894 27.7808 12.6687C28.5948 11.9324 28.9929 10.8785 28.9929 9.4676C28.9929 7.1529 27.9271 4.98114 25.992 3.35249C24.0779 1.74155 21.5375 0.854337 18.8388 0.854337H10.217C8.77464 0.848792 7.34811 1.10133 6.02836 1.60229C4.3425 2.24227 2.89226 3.26206 1.8345 4.55148C1.4865 4.97576 2.14261 5.51395 2.49078 5.08984C3.45461 3.91484 4.78211 2.98327 6.32968 2.39585C7.96551 1.77488 9.75815 1.5749 11.494 1.78065C13.1976 1.98249 14.7997 2.57738 16.1272 3.50086C17.4294 4.40679 18.4107 5.58734 18.9651 6.91485C19.5743 8.37352 19.8986 10.4989 18.7673 11.8136C18.4398 11.8135 18.1125 11.8103 17.7921 11.8124C15.0917 11.8301 10.7885 11.6388 9.19569 13.2317C9.19569 13.2317 8.78867 13.234 8.58428 13.2358C6.74649 13.2517 4.84662 13.2684 3.0331 12.7452C2.42944 12.5428 1.63379 12.1419 1.25093 11.3793C0.559394 9.93528 0.887705 8.29243 1.28511 7.16824C1.46805 6.65087 0.667756 6.368 0.484814 6.88537C-0.162415 8.71614 -0.161566 10.3982 0.487134 11.7497C0.488152 11.7517 0.489114 11.7538 0.490189 11.7558C1.00416 12.7838 2.01506 13.3005 2.77263 13.553C4.66419 14.1868 6.78853 14.1 8.75562 14.0834C8.55423 14.8878 8.68472 15.8362 8.68472 16.6564C6.89768 17.5522 5.07194 18.3919 3.34336 19.3986C2.15687 20.0896 0.600136 20.9735 0.133586 22.3624C-0.0540529 22.9211 -0.00691692 23.4897 0.273692 24.0524L1.32506 26.1609C2.12337 27.7619 4.1406 28.1578 5.76433 28.1454C7.87486 28.132 10.3493 27.4703 12.732 26.2822C14.9333 25.1845 16.8224 23.7539 18.1073 22.2196C19.7283 22.2775 21.3629 22.1516 22.9476 21.7989C23.4832 21.6797 23.2989 20.8511 22.7631 20.9704C21.4444 21.264 20.0899 21.3906 18.7399 21.3832C19.0895 20.8653 19.3543 20.3567 19.5322 19.8655C22.0148 19.7816 24.3292 19.2472 26.0687 18.3538C26.9601 17.896 27.6619 17.3629 28.1545 16.7799C28.1555 17.4125 27.9944 17.9641 27.5995 18.4731C27.0648 19.1627 26.2376 19.741 25.0708 20.2413C24.5745 20.454 24.9173 21.2307 25.4053 21.0214C26.7078 20.4629 27.6449 19.7995 28.2703 18.9933C28.8688 18.2213 29.0196 17.3805 28.998 16.4268ZM16.6118 2.80411C15.984 2.36739 15.3004 1.99856 14.5767 1.70318H18.8387C23.9697 1.70318 28.144 5.18632 28.144 9.46766C28.144 11.3397 26.8798 12.2951 26.8798 12.2951C24.9752 11.8677 22.098 11.8076 19.7979 11.8125C20.6988 10.2076 20.3648 8.0641 19.7483 6.58778C19.1315 5.11083 18.047 3.80246 16.6118 2.80411V2.80411ZM0.938123 22.6327C1.4161 21.2097 4.24551 19.8074 7.52177 18.1837C8.14829 17.8733 8.77401 17.5612 9.399 17.2477C12.2316 15.8267 14.7292 14.5736 16.272 14.5736C16.8749 14.5736 17.4105 14.8119 17.6881 15.3688C18.1811 16.3574 17.8255 17.7233 16.6868 19.2148C15.4832 20.7913 13.5707 22.2826 11.3018 23.414C9.03278 24.5454 6.69098 25.1754 4.70747 25.1881C2.83194 25.2011 1.52616 24.6623 1.03319 23.6736C0.854376 23.3151 0.82331 22.9746 0.938123 22.6327V22.6327ZM12.3532 25.5226C10.0842 26.654 7.74234 27.284 5.75884 27.2967C4.34244 27.3062 2.6074 27.0125 1.97709 25.5666C2.70207 25.8754 3.60218 26.0371 4.64755 26.0371C4.66922 26.0371 4.69112 26.0371 4.71285 26.0369C6.82339 26.0234 9.29783 25.3617 11.6805 24.1736C14.0631 22.9856 16.0807 21.4074 17.3614 19.7299C18.0127 18.8768 18.4384 18.0425 18.6319 17.2617C19.4102 18.6309 18.5914 20.2057 17.7381 21.3233C16.5345 22.8999 14.622 24.3912 12.3532 25.5226V25.5226ZM19.7577 19.007C19.867 18.3131 19.783 17.6681 19.4991 17.0987L18.4477 14.9901C18.1671 14.4273 17.7413 14.0476 17.1823 13.8613C15.5867 13.3298 13.1114 14.4482 9.99276 16.0014C9.53571 15.3561 9.28391 14.3321 9.9128 13.7047C10.9757 12.6446 14.1332 12.6523 17.7899 12.6612C18.479 12.6628 19.1985 12.6628 19.8875 12.6612C23.5442 12.6519 26.7019 12.6446 27.7646 13.7047C28.0199 13.9594 28.144 14.278 28.144 14.6787C28.1441 16.8877 24.4219 18.786 19.7577 19.007Z" fill="#91361E"/>
<path d="M22.1778 14.11C21.6316 14.11 21.6308 14.9588 22.1778 14.9588C22.7239 14.9588 22.7248 14.11 22.1778 14.11Z" fill="#91361E"/>
<path d="M24.9507 15.5246C24.4046 15.5246 24.4037 16.3734 24.9507 16.3734C25.4969 16.3734 25.4978 15.5246 24.9507 15.5246Z" fill="#91361E"/>
<path d="M4.23198 23.1005C4.77815 23.1005 4.77905 22.2517 4.23198 22.2517C3.68582 22.2517 3.68491 23.1005 4.23198 23.1005Z" fill="#91361E"/>
<path d="M9.82545 22.3981C10.3716 22.3981 10.3725 21.5493 9.82545 21.5493C9.27934 21.5493 9.27843 22.3981 9.82545 22.3981Z" fill="#91361E"/>
<path d="M12.2845 18.3265C12.8306 18.3265 12.8315 17.4778 12.2845 17.4778C11.7383 17.4778 11.7374 18.3265 12.2845 18.3265Z" fill="#91361E"/>
<path d="M15.3972 18.3552C15.9434 18.3552 15.9443 17.5064 15.3972 17.5064C14.8511 17.5064 14.8502 18.3552 15.3972 18.3552Z" fill="#91361E"/>
</svg>
