<svg width="27" height="29" viewBox="0 0 27 29" fill="none" xmlns="http://www.w3.org/2000/svg">
<path d="M21.1475 14.2425H23.1703C23.6276 14.2425 23.9997 13.8704 23.9997 13.4131V11.3903C23.9997 10.9329 23.6276 10.5609 23.1703 10.5609H21.1475C20.6901 10.5609 20.3181 10.9329 20.3181 11.3903V13.4131C20.3181 13.8704 20.6901 14.2425 21.1475 14.2425V14.2425ZM21.1677 11.4105H23.1501V13.3929H21.1677V11.4105ZM21.1475 19.6234H23.1703C23.6276 19.6234 23.9997 19.2513 23.9997 18.794V16.7711C23.9997 16.3138 23.6276 15.9417 23.1703 15.9417H21.1475C20.6901 15.9417 20.3181 16.3138 20.3181 16.7711V18.794C20.3181 19.2513 20.6901 19.6234 21.1475 19.6234V19.6234ZM21.1677 16.7913H23.1501V18.7738H21.1677V16.7913ZM15.3749 14.2425H17.3977C17.855 14.2425 18.2271 13.8704 18.2271 13.4131V11.3903C18.2271 10.9329 17.855 10.5609 17.3977 10.5609H15.3749C14.9176 10.5609 14.5455 10.9329 14.5455 11.3903V13.4131C14.5455 13.8704 14.9176 14.2425 15.3749 14.2425ZM15.3951 11.4105H17.3775V13.3929H15.3951V11.4105ZM5.85256 21.0703H3.8297C3.37238 21.0703 3.00031 21.4424 3.00031 21.8997V23.9226C3.00031 24.3799 3.37238 24.752 3.8297 24.752H5.85256C6.30988 24.752 6.68195 24.3799 6.68195 23.9226V21.8997C6.68195 21.4424 6.30988 21.0703 5.85256 21.0703ZM5.83234 23.9023H3.84992V21.9199H5.83234V23.9023ZM5.85256 10.5609H3.8297C3.37238 10.5609 3.00031 10.9329 3.00031 11.3903V13.4131C3.00031 13.8704 3.37238 14.2425 3.8297 14.2425H5.85256C6.30988 14.2425 6.68195 13.8704 6.68195 13.4131V11.3903C6.68195 10.9329 6.30988 10.5609 5.85256 10.5609ZM5.83234 13.3929H3.84992V11.4105H5.83234V13.3929ZM15.3749 19.4972H17.3977C17.855 19.4972 18.2271 19.1252 18.2271 18.6678V16.645C18.2271 16.1877 17.855 15.8156 17.3977 15.8156H15.3749C14.9176 15.8156 14.5455 16.1877 14.5455 16.645V18.6678C14.5455 19.1252 14.9176 19.4972 15.3749 19.4972ZM15.3951 16.6652H17.3775V18.6476H15.3951V16.6652ZM24.4216 1.9413H22.6054V1.2918C22.6054 0.57949 22.0259 0 21.3136 0H21.1185C20.4063 0 19.8268 0.57949 19.8268 1.2918V1.9413H7.17325V1.2918C7.17325 0.57949 6.59376 0 5.88145 0H5.68638C4.97407 0 4.39458 0.57949 4.39458 1.2918V1.9413H2.57839C1.40565 1.9413 0.451538 2.89541 0.451538 4.06816V26.876C0.451538 28.0472 1.40435 29 2.57556 29H24.4246C25.5958 29 26.5486 28.0472 26.5486 26.876V4.06816C26.5485 2.89541 25.5944 1.9413 24.4216 1.9413V1.9413ZM20.6764 1.2918C20.6764 1.04796 20.8747 0.849609 21.1186 0.849609H21.3136C21.5575 0.849609 21.7558 1.04796 21.7558 1.2918V1.9413H20.6764V1.2918ZM5.24424 1.2918C5.24424 1.04796 5.4426 0.849609 5.68643 0.849609H5.88151C6.12534 0.849609 6.3237 1.04796 6.3237 1.2918V1.9413H5.2443V1.2918H5.24424ZM25.6989 26.876C25.6989 27.5787 25.1273 28.1504 24.4245 28.1504H2.5755C1.87276 28.1504 1.30109 27.5787 1.30109 26.876V26.8733C1.65702 27.1415 2.09944 27.3008 2.57839 27.3008H19.8018C20.3699 27.3008 20.9041 27.0795 21.3058 26.6778L25.6989 22.2846V26.876ZM20.8723 25.9097C20.9056 25.7723 20.9237 25.6289 20.9237 25.4814V22.6457C20.9237 22.111 21.3588 21.676 21.8935 21.676H24.7291C24.8767 21.676 25.02 21.6578 25.1575 21.6245L20.8723 25.9097ZM25.6989 8.01204H7.59806C7.36345 8.01204 7.17325 8.20224 7.17325 8.43685C7.17325 8.67145 7.36345 8.86165 7.59806 8.86165H25.6989V19.8566C25.6989 20.3914 25.2639 20.8264 24.7291 20.8264H21.8935C20.8903 20.8264 20.0741 21.6426 20.0741 22.6458V25.4814C20.0741 26.0162 19.6391 26.4512 19.1044 26.4512H2.57839C1.87412 26.4512 1.30115 25.8783 1.30115 25.1739V8.86165H5.89884C6.13344 8.86165 6.32364 8.67145 6.32364 8.43685C6.32364 8.20224 6.13344 8.01204 5.89884 8.01204H1.30109V4.06816C1.30109 3.36389 1.87407 2.79091 2.57834 2.79091H4.39458V4.03995C4.39458 4.75226 4.97407 5.33175 5.68638 5.33175C5.92098 5.33175 6.11118 5.14155 6.11118 4.90695C6.11118 4.67234 5.92098 4.48214 5.68638 4.48214C5.44254 4.48214 5.24418 4.28379 5.24418 4.03995V2.79091H19.8268V4.03995C19.8268 4.75226 20.4063 5.33175 21.1186 5.33175C21.3532 5.33175 21.5434 5.14155 21.5434 4.90695C21.5434 4.67234 21.3532 4.48214 21.1186 4.48214C20.8747 4.48214 20.6764 4.28379 20.6764 4.03995V2.79091H24.4217C25.1259 2.79091 25.6989 3.36389 25.6989 4.06816V8.01204ZM5.85256 15.8156H3.8297C3.37238 15.8156 3.00031 16.1877 3.00031 16.645V18.6678C3.00031 19.1252 3.37238 19.4972 3.8297 19.4972H5.85256C6.30988 19.4972 6.68195 19.1252 6.68195 18.6678V16.645C6.68195 16.1876 6.30988 15.8156 5.85256 15.8156ZM5.83234 18.6476H3.84992V16.6652H5.83234V18.6476ZM9.60228 14.2425H11.6251C12.0825 14.2425 12.4545 13.8704 12.4545 13.4131V11.3903C12.4545 10.9329 12.0825 10.5609 11.6251 10.5609H9.60228C9.14497 10.5609 8.7729 10.9329 8.7729 11.3903V13.4131C8.7729 13.8704 9.14497 14.2425 9.60228 14.2425ZM9.62251 11.4105H11.6049V13.3929H9.62251V11.4105ZM15.3946 23.9023C15.384 23.6771 15.1981 23.4978 14.9702 23.4978C14.7356 23.4978 14.5454 23.688 14.5454 23.9226C14.5454 24.3799 14.9175 24.752 15.3748 24.752H17.3977C17.855 24.752 18.2271 24.3799 18.2271 23.9226V21.8997C18.2271 21.4424 17.855 21.0703 17.3977 21.0703H15.3748C14.9175 21.0703 14.5454 21.4424 14.5454 21.8997V22.4831C14.5454 22.7177 14.7356 22.9079 14.9702 22.9079C15.2048 22.9079 15.395 22.7177 15.395 22.4831V21.9199H17.3775V23.9023H15.3946ZM9.60228 19.4972H11.6251C12.0825 19.4972 12.4545 19.1252 12.4545 18.6678V16.645C12.4545 16.1877 12.0825 15.8156 11.6251 15.8156H9.60228C9.14497 15.8156 8.7729 16.1877 8.7729 16.645V18.6678C8.7729 19.1252 9.14497 19.4972 9.60228 19.4972ZM9.62251 16.6652H11.6049V18.6476H9.62251V16.6652ZM9.60228 24.752H11.6251C12.0825 24.752 12.4545 24.3799 12.4545 23.9226V21.8997C12.4545 21.4424 12.0825 21.0703 11.6251 21.0703H9.60228C9.14497 21.0703 8.7729 21.4424 8.7729 21.8997V23.9226C8.7729 24.3799 9.14497 24.752 9.60228 24.752ZM9.62251 21.9199H11.6049V23.9023H9.62251V21.9199Z" fill="#602515"/>
</svg>
