<svg width="75" height="64" viewBox="0 0 75 64" fill="none" xmlns="http://www.w3.org/2000/svg">
<g clip-path="url(#clip0)">
<path d="M69.0741 8.66673C71.5432 8.66673 72.7778 9.4692 72.7778 11.0741C72.7778 11.6914 72.5309 12.247 72.037 12.7408C71.5432 13.1112 70.8025 13.3581 69.8148 13.4815C66.8519 14.2223 64.0741 15.3334 61.4815 16.8149C58.8889 18.2964 56.7284 20.3334 55 22.926C53.3951 25.3951 52.5926 28.5433 52.5926 32.3704C52.5926 34.0988 53.2716 35.8272 54.6296 37.5556C56.1111 39.284 57.9012 40.2717 60 40.5186C62.4691 40.8889 64.4444 41.8766 65.9259 43.4815C67.5309 44.963 68.3333 46.8766 68.3333 49.2223C68.3333 51.9383 67.2222 54.2223 65 56.0741C62.7778 57.926 60.1852 58.8519 57.2222 58.8519C52.4074 58.8519 48.4568 57.1235 45.3704 53.6667C42.284 50.2099 40.7407 45.8272 40.7407 40.5186C40.7407 35.7038 41.6667 31.3828 43.5185 27.5556C45.3704 23.605 47.716 20.2099 50.5556 17.3704C53.5185 14.5309 56.6049 12.3704 59.8148 10.8889C63.1482 9.40747 66.2346 8.66673 69.0741 8.66673ZM34.8148 8.66673C37.284 8.66673 38.5185 9.4692 38.5185 11.0741C38.5185 11.6914 38.2716 12.247 37.7778 12.7408C37.284 13.1112 36.5432 13.3581 35.5556 13.4815C32.5926 14.2223 29.8148 15.3334 27.2222 16.8149C24.6296 18.2964 22.4691 20.3334 20.7407 22.926C19.1358 25.3951 18.3333 28.5433 18.3333 32.3704C18.3333 34.0988 19.0123 35.8272 20.3704 37.5556C21.8519 39.284 23.642 40.2717 25.7407 40.5186C28.2099 40.8889 30.1852 41.8766 31.6667 43.4815C33.2716 44.963 34.0741 46.8766 34.0741 49.2223C34.0741 51.9383 32.963 54.2223 30.7407 56.0741C28.5185 57.926 25.9259 58.8519 22.963 58.8519C18.1481 58.8519 14.1975 57.1235 11.1111 53.6667C8.02469 50.2099 6.48148 45.8272 6.48148 40.5186C6.48148 35.7038 7.40741 31.3828 9.25926 27.5556C11.1111 23.605 13.4568 20.2099 16.2963 17.3704C19.2593 14.5309 22.3457 12.3704 25.5556 10.8889C28.8889 9.40747 31.9753 8.66673 34.8148 8.66673Z" fill="#602515" fill-opacity="0.7"/>
</g>
<defs>
<clipPath id="clip0">
<rect width="75" height="63.8889" fill="white"/>
</clipPath>
</defs>
</svg>
