<svg width="43" height="29" viewBox="0 0 43 29" fill="none" xmlns="http://www.w3.org/2000/svg">
<g clip-path="url(#clip0)">
<path d="M21.5557 9.69004H6.55566C6.55566 10.19 6.99996 17.028 14 17.028C19.6568 17.028 21.389 12.0234 21.5557 9.69004Z" fill="#E7CACA"/>
<path d="M15.787 17.3153C15.8788 17.2672 15.9576 17.2044 16.0239 17.1323C19.5753 16.1543 22.2036 12.748 22.2036 8.70732C22.2036 5.98515 20.4904 0.814196 20.4174 0.59537C20.2989 0.23984 19.9662 7.62939e-06 19.5914 7.62939e-06H8.27186C7.89707 7.62939e-06 7.56434 0.23984 7.44581 0.59537C7.37283 0.814196 5.65967 5.98515 5.65967 8.70732C5.65967 12.748 8.28797 16.1543 11.8394 17.1322C11.9056 17.2044 11.9844 17.2672 12.0763 17.3152C12.6836 17.6334 13.0609 18.257 13.0609 18.9428V24.3805C13.0609 25.3407 12.2797 26.122 11.3194 26.122H9.57796C9.09704 26.122 8.70723 26.5118 8.70723 26.9927C8.70723 27.4736 9.09704 27.8634 9.57796 27.8634H18.2853C18.7662 27.8634 19.156 27.4736 19.156 26.9927C19.156 26.5118 18.7662 26.122 18.2853 26.122H16.5438C15.5836 26.122 14.8024 25.3407 14.8024 24.3805V18.9428C14.8024 18.257 15.1796 17.6334 15.787 17.3153ZM7.40113 8.70732C7.40113 6.76614 8.46424 3.16049 8.90755 1.74147H18.9558C19.3992 3.16011 20.4621 6.76429 20.4621 8.70732C20.4621 12.5483 17.5325 15.6732 13.9316 15.6732C10.3307 15.6732 7.40113 12.5483 7.40113 8.70732Z" fill="#602515"/>
</g>
<path d="M17.0492 20.0331C16.2967 22.0478 15.935 26.3248 20.5082 27.3152C26.2247 28.5532 37.9854 27.5701 39.1505 26.769C40.3157 25.968 44.5393 23.31 39.8059 16.3192C35.0725 9.32831 18.7464 11.6268 17.7733 17.2098" stroke="#602515" stroke-width="1.53659" stroke-linecap="round" stroke-linejoin="round"/>
<circle cx="23.5862" cy="17.097" r="0.50975" fill="#602515"/>
<circle cx="24.6055" cy="23.7966" r="0.50975" fill="#602515"/>
<circle cx="29.5574" cy="19.5001" r="0.50975" fill="#602515"/>
<circle cx="34.3638" cy="15.4221" r="0.50975" fill="#602515"/>
<circle cx="38.8056" cy="20.4468" r="0.50975" fill="#602515"/>
<circle cx="33.854" cy="23.7966" r="0.50975" fill="#602515"/>
<defs>
<clipPath id="clip0">
<rect width="27.8634" height="27.8634" fill="white"/>
</clipPath>
</defs>
</svg>
