<svg width="43" height="29" viewBox="0 0 43 29" fill="none" xmlns="http://www.w3.org/2000/svg">
<g clip-path="url(#clip0)">
<path d="M21.5557 9.69005H6.5557C6.5557 10.19 7 17.028 14 17.028C19.6569 17.028 21.389 12.0234 21.5557 9.69005Z" fill="#C03B3B"/>
<path d="M15.7871 17.3153C15.8789 17.2672 15.9577 17.2044 16.024 17.1322C19.5754 16.1543 22.2037 12.7479 22.2037 8.70732C22.2037 5.98514 20.4905 0.814189 20.4175 0.595363C20.299 0.239832 19.9663 0 19.5915 0H8.27195C7.89716 0 7.56443 0.239832 7.4459 0.595363C7.37292 0.814189 5.65976 5.98514 5.65976 8.70732C5.65976 12.7479 8.28806 16.1542 11.8394 17.1322C11.9057 17.2044 11.9845 17.2672 12.0763 17.3152C12.6837 17.6334 13.061 18.257 13.061 18.9428V24.3805C13.061 25.3407 12.2798 26.122 11.3195 26.122H9.57805C9.09713 26.122 8.70732 26.5118 8.70732 26.9927C8.70732 27.4735 9.09713 27.8634 9.57805 27.8634H18.2854C18.7663 27.8634 19.1561 27.4735 19.1561 26.9927C19.1561 26.5118 18.7663 26.122 18.2854 26.122H16.5439C15.5836 26.122 14.8024 25.3407 14.8024 24.3805V18.9428C14.8024 18.257 15.1797 17.6334 15.7871 17.3153ZM7.40122 8.70732C7.40122 6.76613 8.46433 3.16048 8.90764 1.74146H18.9559C19.3992 3.1601 20.4622 6.76428 20.4622 8.70732C20.4622 12.5483 17.5326 15.6732 13.9317 15.6732C10.3308 15.6732 7.40122 12.5483 7.40122 8.70732Z" fill="black"/>
</g>
<path d="M17.0491 20.0331C16.2966 22.0478 15.9349 26.3248 20.5081 27.3152C26.2246 28.5532 37.9853 27.5701 39.1504 26.769C40.3156 25.968 44.5392 23.31 39.8058 16.3192C35.0724 9.32831 18.7463 11.6268 17.7732 17.2098" stroke="black" stroke-width="1.53659" stroke-linecap="round" stroke-linejoin="round"/>
<circle cx="23.586" cy="17.097" r="0.50975" fill="black"/>
<circle cx="24.6055" cy="23.7966" r="0.50975" fill="black"/>
<circle cx="29.5573" cy="19.5002" r="0.50975" fill="black"/>
<circle cx="34.3636" cy="15.4221" r="0.50975" fill="black"/>
<circle cx="38.8057" cy="20.4468" r="0.50975" fill="black"/>
<circle cx="33.8538" cy="23.7966" r="0.50975" fill="black"/>
<defs>
<clipPath id="clip0">
<rect width="27.8634" height="27.8634" fill="white"/>
</clipPath>
</defs>
</svg>
