<svg width="22" height="22" viewBox="0 0 22 22" fill="none" xmlns="http://www.w3.org/2000/svg">
<path d="M17.3869 13.6282C16.9365 13.1592 16.3933 12.9085 15.8175 12.9085C15.2464 12.9085 14.6985 13.1546 14.2295 13.6236L12.7622 15.0862C12.6415 15.0212 12.5208 14.9608 12.4047 14.9005C12.2376 14.8169 12.0797 14.7379 11.945 14.6544C10.5706 13.7814 9.3216 12.6438 8.12364 11.1719C7.54324 10.4383 7.1532 9.82075 6.86997 9.19391C7.25071 8.84566 7.6036 8.48349 7.9472 8.13525C8.07721 8.00523 8.20722 7.87058 8.33723 7.74057C9.31231 6.76549 9.31231 5.50252 8.33723 4.52744L7.06963 3.25983C6.92568 3.11589 6.7771 2.96731 6.6378 2.81872C6.35921 2.53084 6.06668 2.23367 5.76487 1.95508C5.31448 1.50933 4.77586 1.27252 4.20938 1.27252C3.64291 1.27252 3.095 1.50933 2.63068 1.95508C2.62603 1.95972 2.62604 1.95972 2.62139 1.96437L1.04269 3.557C0.448351 4.15134 0.109393 4.87568 0.0351013 5.71611C-0.0763367 7.07194 0.322983 8.33491 0.629437 9.1614C1.38164 11.1905 2.50531 13.071 4.18152 15.0862C6.21527 17.5146 8.66226 19.4323 11.4575 20.7835C12.5254 21.2896 13.9509 21.8886 15.5436 21.9907C15.6411 21.9953 15.7432 22 15.8361 22C16.9087 22 17.8095 21.6146 18.5152 20.8485C18.5199 20.8392 18.5292 20.8345 18.5338 20.8253C18.7753 20.5327 19.0539 20.2681 19.3464 19.9848C19.546 19.7944 19.7503 19.5948 19.95 19.3858C20.4097 18.9076 20.6511 18.3504 20.6511 17.7793C20.6511 17.2035 20.405 16.651 19.9361 16.1866L17.3869 13.6282ZM19.0492 18.5176C19.0446 18.5176 19.0446 18.5222 19.0492 18.5176C18.8681 18.7126 18.6824 18.889 18.4827 19.084C18.1809 19.3719 17.8745 19.6737 17.5866 20.0127C17.1176 20.5142 16.5651 20.751 15.8407 20.751C15.7711 20.751 15.6968 20.751 15.6271 20.7463C14.2481 20.6581 12.9666 20.1195 12.0054 19.6598C9.37732 18.3875 7.06963 16.5813 5.15196 14.2922C3.56861 12.3838 2.50995 10.6194 1.80882 8.72494C1.377 7.56877 1.21913 6.66798 1.28878 5.81826C1.33521 5.275 1.54416 4.82461 1.92955 4.43922L3.5129 2.85587C3.74042 2.64228 3.98186 2.5262 4.21867 2.5262C4.51119 2.5262 4.748 2.70264 4.89658 2.85123C4.90123 2.85587 4.90587 2.86051 4.91051 2.86516C5.19375 3.12982 5.46306 3.40377 5.7463 3.6963C5.89024 3.84488 6.03882 3.99347 6.18741 4.14669L7.45502 5.4143C7.9472 5.90649 7.9472 6.36153 7.45502 6.85371C7.32036 6.98836 7.19035 7.12302 7.0557 7.25303C6.66566 7.65235 6.2942 8.02381 5.89024 8.38598C5.88095 8.39527 5.87167 8.39991 5.86702 8.4092C5.4677 8.80852 5.542 9.19855 5.62557 9.46322C5.63022 9.47715 5.63486 9.49107 5.6395 9.505C5.96918 10.3036 6.4335 11.0559 7.13927 11.952L7.14392 11.9566C8.42546 13.5353 9.77664 14.7658 11.2671 15.7084C11.4575 15.8291 11.6525 15.9266 11.8382 16.0195C12.0054 16.1031 12.1633 16.182 12.2979 16.2656C12.3165 16.2749 12.3351 16.2888 12.3536 16.2981C12.5115 16.377 12.6601 16.4142 12.8133 16.4142C13.1987 16.4142 13.4402 16.1727 13.5191 16.0938L15.1071 14.5058C15.265 14.3479 15.5157 14.1575 15.8082 14.1575C16.0961 14.1575 16.3329 14.3386 16.4769 14.4965C16.4815 14.5011 16.4815 14.5011 16.4861 14.5058L19.0446 17.0642C19.5228 17.5378 19.5228 18.0254 19.0492 18.5176Z" fill="black"/>
<path d="M11.8893 5.23318C13.1059 5.43748 14.211 6.01325 15.0932 6.89546C15.9754 7.77768 16.5465 8.88278 16.7555 10.0993C16.8065 10.4058 17.0712 10.6194 17.373 10.6194C17.4101 10.6194 17.4427 10.6147 17.4798 10.6101C17.8234 10.5543 18.0509 10.2293 17.9952 9.88572C17.7445 8.41381 17.048 7.07191 15.9847 6.0086C14.9214 4.9453 13.5795 4.24881 12.1076 3.99808C11.764 3.94236 11.4436 4.16988 11.3832 4.50883C11.3229 4.84779 11.5457 5.17746 11.8893 5.23318Z" fill="black"/>
<path d="M21.9745 9.70466C21.5612 7.28089 20.419 5.07534 18.6638 3.32019C16.9087 1.56505 14.7031 0.422806 12.2794 0.0095565C11.9404 -0.0508058 11.62 0.181357 11.5596 0.520314C11.5039 0.863915 11.7314 1.1843 12.0751 1.24466C14.2388 1.61148 16.2122 2.63764 17.7816 4.20241C19.351 5.77183 20.3725 7.74521 20.7394 9.90897C20.7904 10.2154 21.0551 10.429 21.3569 10.429C21.3941 10.429 21.4266 10.4244 21.4637 10.4197C21.8027 10.3686 22.0348 10.0436 21.9745 9.70466Z" fill="black"/>
</svg>
