<svg width="19" height="29" viewBox="0 0 19 29" fill="none" xmlns="http://www.w3.org/2000/svg">
<path d="M11.431 18.0216C11.5266 17.9716 11.6086 17.9062 11.6776 17.8311C15.3739 16.8132 18.1094 13.268 18.1094 9.0625C18.1094 6.22928 16.3263 0.8474 16.2504 0.619648C16.127 0.249615 15.7807 0 15.3906 0H3.60938C3.21929 0 2.87299 0.249615 2.74963 0.619648C2.67367 0.8474 0.890625 6.22928 0.890625 9.0625C0.890625 13.268 3.62614 16.8132 7.32239 17.831C7.39138 17.9062 7.4734 17.9715 7.56895 18.0215C8.20106 18.3526 8.59375 19.0017 8.59375 19.7155V25.375C8.59375 26.3744 7.78067 27.1875 6.78125 27.1875H4.96875C4.46822 27.1875 4.0625 27.5933 4.0625 28.0938C4.0625 28.5942 4.46822 29 4.96875 29H14.0312C14.5318 29 14.9375 28.5942 14.9375 28.0938C14.9375 27.5933 14.5318 27.1875 14.0312 27.1875H12.2188C11.2193 27.1875 10.4062 26.3744 10.4062 25.375V19.7155C10.4062 19.0017 10.7989 18.3526 11.431 18.0216ZM2.70312 9.0625C2.70312 7.04213 3.8096 3.2894 4.27099 1.8125H14.7292C15.1906 3.28901 16.2969 7.0402 16.2969 9.0625C16.2969 13.0602 13.2478 16.3125 9.5 16.3125C5.7522 16.3125 2.70312 13.0602 2.70312 9.0625Z" fill="#91361E"/>
</svg>
